# xmcd CD database file
#
# Track frame offsets:
#	150
#	9975
#	21900
#	31352
#	41998
#	52423
#	60448
#	68781
#	80632
#	91189
#	102752
#
# Disc length: 1508 seconds
#
# Revision: 0
# Processed by: cddbd v1.5.2PL0 Copyright (c) Steve Scherf et al.
# Submitted via: CDex 1.79
#
DISCID=8c05e20b
DTITLE=Bruce Rollo and Bob Surgeoner - Loose Like a Goose
DYEAR=1900
DGENRE=Country
TTITLE0=Country Cattin'
TTITLE1=I'm An Old Cow Hand
TTITLE2=San Antonio Rose
TTITLE3=I'm Going Back To The Old Home
TTITLE4=On The Beach at Walkiki
TTITLE5=So You Think You've Got Troubles
TTITLE6=She Broke My Heart In Three Places
TTITLE7=Pennies From Heaven
TTITLE8=Whenever Youre Ready (Let's Fall in Love)
TTITLE9=Sweet Heaven When I Die
TTITLE10=In The Wee Small Hours of the Morning
EXTD=
EXTT0=
EXTT1=
EXTT2=
EXTT3=
EXTT4=
EXTT5=
EXTT6=
EXTT7=
EXTT8=
EXTT9=
EXTT10=
PLAYORDER=
